<?xml version="1.0" encoding="utf-8"?>
<!-- Generator: Adobe Illustrator 28.1.0, SVG Export Plug-In . SVG Version: 6.00 Build 0)  -->
<svg version="1.1" id="Layer_1" xmlns="http://www.w3.org/2000/svg" xmlns:xlink="http://www.w3.org/1999/xlink" x="0px" y="0px"
	 viewBox="0 0 538 261" style="enable-background:new 0 0 538 261;" xml:space="preserve">
<style type="text/css">
	.st0{fill:#DCDCDC;}
</style>
<g>
	<polygon class="st0" points="235.36,90.87 241.94,90.52 237.08,-0.23 181.55,2.75 184.93,65.91 158.46,149.54 161.74,150.58 
		148.96,205.38 203.12,218.01 223.75,129.51 223.17,129.38 	"/>
	<path class="st0" d="M526.06,102.6l11.72-6.04l-41.62-80.78l-12.86,6.63l-0.01-8.38l-90.87,0.06l0.02,23.15l-20.54-2.59
		l-11.36,90.16l9.12,1.15l12.31,70.96l31.48-5.46l7.25,19.39l85.12-31.82l-3.09-8.26L526.06,102.6z M421.22,97.87l-1.27,0.22
		l3.58-28.42l37.83-0.03l10.34,20.07l-16.76,48.96l-25.01,9.35L421.22,97.87z"/>
	<path class="st0" d="M340.38,260.82l51.08-21.98l-28.32-65.83l7.89-2.3l-25.4-87.25l-2.5,0.73l-0.02-25.97l-90.87,0.06l0.02,30.55
		l-20.86,72.19l-3.97-0.31l-6.97,90.6l55.44,4.27l2.9-37.68l42.22-2.08L340.38,260.82z M310.2,160.69l-21.11,1.04l10.67-36.92
		L310.2,160.69z"/>
	<polygon class="st0" points="117.29,124.16 83.27,155.8 58.28,144.93 66.03,84.66 82.66,62.65 110.31,64.91 110.06,116.24 
		165.67,116.51 166.11,25.64 153.61,25.58 154.66,12.73 64.09,5.35 63.38,14.04 54.67,7.46 -0.12,79.96 9.62,87.32 -0.1,162.99 
		24.89,166.2 15.81,187.09 76.14,213.34 88.62,226.77 94.48,221.32 99.13,223.35 103.77,212.67 155.16,164.88 	"/>
</g>
</svg>
